<svg xmlns="http://www.w3.org/2000/svg" fill="none" viewBox="704.21 150 254.79 260">
<path opacity="0.1" d="M831.604 410C866.954 410 895.611 406.974 895.611 403.241C895.611 399.509 866.954 396.482 831.604 396.482C796.254 396.482 767.598 399.509 767.598 403.241C767.598 406.974 796.254 410 831.604 410Z" fill="black"/>
<path d="M831.605 404.47C901.964 404.47 959.001 347.505 959.001 277.235C959.001 206.965 901.964 150 831.605 150C761.246 150 704.209 206.965 704.209 277.235C704.209 347.505 761.246 404.47 831.605 404.47Z" fill="#F8F8F8"/>
<path opacity="0.1" d="M937.462 277.23C937.462 335.62 890.063 382.954 831.604 382.954C828.249 382.954 824.926 382.803 821.66 382.494C769.026 377.586 727.578 334.203 725.814 280.795C725.772 279.607 725.751 278.418 725.751 277.23C725.751 274.561 725.851 271.912 726.05 269.284C730.117 214.611 775.825 171.532 831.609 171.532C879.762 171.532 920.399 203.639 933.238 247.58C933.463 248.37 933.688 249.149 933.903 249.959C934.688 252.921 935.351 255.934 935.892 258.997C936.938 265.019 937.463 271.119 937.462 277.23Z" fill="black"/>
<path opacity="0.4" d="M937.462 277.228C937.462 335.618 890.063 382.953 831.604 382.953C774.339 382.953 727.688 337.526 725.809 280.794C737.879 281.139 750.173 280.741 761.578 276.816C773.941 272.566 784.524 264.432 795.908 257.997C826.491 240.773 862.988 236.136 897.925 239.544C909.79 240.699 922.095 243.104 933.233 247.526C936.046 257.168 937.47 267.16 937.462 277.202V277.228Z" fill="#1A5A96"/>
<path opacity="0.4" d="M937.462 277.229C937.462 335.619 890.063 382.953 831.604 382.953C828.249 382.953 824.926 382.802 821.66 382.493C804.495 374.026 789.949 361.069 779.573 345C769.197 328.931 763.378 310.353 762.735 291.244C774.805 291.589 787.1 291.191 798.505 287.266C810.872 283.016 821.45 274.882 832.834 268.447C863.139 251.374 899.249 246.675 933.898 249.906C934.683 252.868 935.346 255.88 935.887 258.944C936.937 264.982 937.464 271.1 937.462 277.229Z" fill="#1A5A96"/>
<path d="M937.462 277.23C937.462 335.62 890.063 382.954 831.604 382.954C773.146 382.954 725.746 335.62 725.746 277.23C725.746 274.561 725.846 271.912 726.045 269.285C734.393 270.303 742.54 272.568 750.215 276.002C762.63 281.569 773.674 290.116 786.587 294.408C796.008 297.544 806.026 298.291 815.939 298.589C828.317 298.982 840.958 298.668 852.666 294.638C865.029 290.388 875.607 282.254 886.996 275.845C902.138 267.314 918.746 261.872 935.887 258.966C936.936 264.998 937.463 271.108 937.462 277.23Z" fill="#1A5A96"/>
<path opacity="0.6" d="M765.945 311.14C774.516 309.549 774.553 296.991 774.553 296.991C774.177 298.786 773.299 298.96 768.835 300.4C764.37 301.839 761.677 306.478 761.677 306.478C748.336 291.189 736.869 307.837 736.869 307.837C738.783 310.73 741.587 312.912 744.852 314.052C744.324 315.347 743.767 317.153 744.422 317.816C745.176 318.574 747.236 316.244 748.344 314.847C748.675 314.885 749.007 314.919 749.338 314.942C749.975 316.226 751.554 319.6 751.55 321.603C751.55 321.603 755.189 321.323 754.73 314.654C757.037 314.275 759.287 313.602 761.424 312.651C761.424 312.651 761.047 323.054 764.061 323.599C767.075 324.144 770.029 327.833 770.029 327.833C774.505 319.058 765.945 311.14 765.945 311.14Z" fill="#2E8540"/>
<path opacity="0.6" d="M859.634 337.276C868.205 335.686 868.242 323.128 868.242 323.128C867.865 324.923 866.988 325.097 862.523 326.536C858.059 327.975 855.365 332.614 855.365 332.614C842.025 317.326 830.557 333.974 830.557 333.974C832.472 336.866 835.276 339.049 838.54 340.189C838.013 341.484 837.455 343.29 838.111 343.953C838.864 344.71 840.925 342.381 842.033 340.984C842.364 341.022 842.696 341.056 843.027 341.078C843.664 342.362 845.242 345.737 845.239 347.74C845.239 347.74 848.878 347.46 848.418 340.791C850.726 340.412 852.975 339.739 855.113 338.787C855.113 338.787 854.736 349.19 857.75 349.736C860.764 350.281 863.718 353.97 863.718 353.97C868.193 345.195 859.634 337.276 859.634 337.276Z" fill="#2E8540"/>
<path opacity="0.4" d="M884.317 316.033C875.719 317.466 871.383 305.678 871.383 305.678C872.352 307.236 873.236 307.1 877.924 306.928C882.612 306.755 886.732 310.194 886.732 310.194C894.032 291.271 910.51 302.998 910.51 302.998C909.701 306.369 907.814 309.378 905.136 311.564C906.075 312.601 907.218 314.108 906.829 314.955C906.38 315.924 903.646 314.439 902.127 313.505C901.828 313.653 901.528 313.799 901.225 313.933C901.066 315.357 900.738 319.067 901.428 320.948C901.428 320.948 897.912 321.928 896.06 315.504C893.762 315.937 891.418 316.073 889.083 315.909C889.083 315.909 893 325.555 890.354 327.097C887.709 328.639 886.197 333.114 886.197 333.114C878.986 326.398 884.317 316.033 884.317 316.033Z" fill="#D8292F"/>
<path opacity="0.6" d="M818.179 364.04C824.25 362.908 824.277 353.969 824.277 353.969C824.01 355.247 823.388 355.371 820.226 356.395C817.064 357.419 815.156 360.722 815.156 360.722C805.706 349.839 797.583 361.69 797.583 361.69C798.939 363.749 800.925 365.302 803.238 366.114C802.864 367.036 802.469 368.321 802.934 368.793C803.468 369.332 804.927 367.674 805.712 366.68C805.947 366.707 806.181 366.731 806.416 366.747C806.867 367.661 807.985 370.063 807.983 371.489C807.983 371.489 810.561 371.29 810.235 366.542C811.869 366.273 813.463 365.794 814.977 365.116C814.977 365.116 814.71 372.522 816.845 372.91C818.98 373.298 821.072 375.924 821.072 375.924C824.242 369.678 818.179 364.04 818.179 364.04Z" fill="#2E8540"/>
<path opacity="0.6" d="M835.507 285.756C830.816 281.744 835.268 273.989 835.268 273.989C834.86 275.228 835.336 275.646 837.562 278.113C839.787 280.579 839.786 284.392 839.786 284.392C853.418 279.685 854.52 294.005 854.52 294.005C852.315 295.111 849.817 295.465 847.408 295.012C847.27 295.997 846.968 297.308 846.33 297.485C845.598 297.685 845.164 295.521 844.982 294.267C844.766 294.173 844.55 294.077 844.339 293.974C843.491 294.54 841.32 296.062 840.608 297.298C840.608 297.298 838.475 295.838 841.134 291.89C839.854 290.84 838.713 289.629 837.741 288.286C837.741 288.286 834.265 294.833 832.222 294.103C830.179 293.373 827.052 294.603 827.052 294.603C827.434 287.61 835.507 285.756 835.507 285.756Z" fill="#2E8540"/>
<path opacity="0.6" d="M924.031 275.881C932.633 277.59 937.331 266.013 937.331 266.013C936.326 267.518 935.435 267.364 930.721 267.025C926.007 266.687 921.775 269.969 921.775 269.969C914.983 250.931 898.076 262.065 898.076 262.065C898.792 265.444 900.604 268.498 903.234 270.759C902.259 271.76 901.068 273.22 901.436 274.071C901.861 275.069 904.648 273.665 906.203 272.784C906.499 272.946 906.799 273.096 907.098 273.239C907.216 274.662 907.44 278.362 906.692 280.21C906.692 280.21 910.2 281.298 912.245 274.971C914.53 275.475 916.871 275.687 919.211 275.603C919.211 275.603 914.986 285.061 917.618 286.691C920.25 288.321 921.623 292.807 921.623 292.807C929.075 286.352 924.031 275.881 924.031 275.881Z" fill="#FE7D1E"/>
<path opacity="0.6" d="M892.763 349.29C897.649 347.63 896.645 340.367 896.645 340.367C896.575 341.427 896.075 341.611 893.572 342.824C891.07 344.038 889.876 346.949 889.876 346.949C880.823 339.275 875.474 349.901 875.474 349.901C876.831 351.407 878.651 352.426 880.656 352.801C880.453 353.596 880.275 354.688 880.712 355.012C881.222 355.394 882.231 353.861 882.765 352.957C882.963 352.952 883.16 352.941 883.355 352.925C883.832 353.613 885.033 355.427 885.195 356.586C885.195 356.586 887.303 356.107 886.487 352.292C887.8 351.876 889.056 351.296 890.224 350.565C890.224 350.565 890.848 356.612 892.668 356.666C894.488 356.721 896.506 358.596 896.506 358.596C898.409 353.127 892.763 349.29 892.763 349.29Z" fill="#FE7D1E"/>
<path opacity="0.6" d="M806.069 309.73C799.25 305.18 803.808 294.421 803.808 294.421C803.476 296.081 804.168 296.567 807.509 299.456C810.85 302.345 811.476 307.311 811.476 307.311C828.572 299.208 832.38 317.735 832.38 317.735C829.669 319.497 826.449 320.32 823.213 320.078C823.194 321.384 823.015 323.136 822.209 323.455C821.267 323.834 820.354 321.065 819.909 319.456C819.606 319.368 819.308 319.269 819.015 319.166C817.996 320.029 815.398 322.328 814.669 324.043C814.669 324.043 811.629 322.446 814.466 316.912C812.621 315.736 810.932 314.331 809.441 312.73C809.441 312.73 805.972 321.774 803.153 321.113C800.333 320.453 796.455 322.513 796.455 322.513C795.801 313.323 806.069 309.73 806.069 309.73Z" fill="#FE7D1E"/>
<path opacity="0.4" d="M796.861 280.045C801.572 276.912 798.386 269.448 798.386 269.448C798.62 270.598 798.143 270.934 795.836 272.926C793.53 274.918 793.11 278.355 793.11 278.355C781.248 272.697 778.66 285.519 778.66 285.519C780.542 286.746 782.775 287.325 785.015 287.166C785.032 288.071 785.161 289.284 785.72 289.508C786.373 289.773 786.998 287.858 787.302 286.744C787.512 286.684 787.718 286.616 787.92 286.546C788.629 287.146 790.434 288.745 790.944 289.935C790.944 289.935 793.045 288.837 791.065 284.997C792.34 284.187 793.505 283.218 794.534 282.113C794.534 282.113 796.961 288.387 798.912 287.937C800.863 287.487 803.554 288.924 803.554 288.924C803.982 282.561 796.861 280.045 796.861 280.045Z" fill="#D8292F"/>
<path opacity="0.4" d="M777.945 341.731C773.234 338.598 776.42 331.134 776.42 331.134C776.185 332.284 776.663 332.619 778.97 334.611C781.276 336.603 781.696 340.04 781.696 340.04C793.558 334.383 796.146 347.204 796.146 347.204C794.264 348.432 792.031 349.01 789.791 348.852C789.774 349.756 789.645 350.97 789.086 351.193C788.433 351.459 787.808 349.543 787.504 348.43C787.294 348.369 787.088 348.302 786.886 348.231C786.177 348.832 784.372 350.431 783.862 351.621C783.862 351.621 781.761 350.523 783.741 346.682C782.466 345.873 781.3 344.904 780.272 343.799C780.272 343.799 777.845 350.072 775.894 349.623C773.943 349.173 771.252 350.61 771.252 350.61C770.823 344.247 777.945 341.731 777.945 341.731Z" fill="#D8292F"/>
<path opacity="0.4" d="M871.233 274.932C867.37 272.362 869.983 266.242 869.983 266.242C869.79 267.185 870.182 267.459 872.074 269.093C873.965 270.727 874.309 273.545 874.309 273.545C884.037 268.906 886.159 279.42 886.159 279.42C884.615 280.427 882.785 280.901 880.947 280.771C880.934 281.513 880.828 282.508 880.369 282.691C879.834 282.909 879.321 281.338 879.072 280.425C878.9 280.375 878.731 280.32 878.565 280.262C877.984 280.755 876.504 282.066 876.086 283.042C876.086 283.042 874.363 282.141 875.986 278.992C874.941 278.328 873.985 277.534 873.141 276.628C873.141 276.628 871.151 281.772 869.552 281.403C867.952 281.034 865.745 282.213 865.745 282.213C865.393 276.995 871.233 274.932 871.233 274.932Z" fill="#D8292F"/>
</svg>
