<svg xmlns="http://www.w3.org/2000/svg" fill="none" viewBox="149.04 150 259.96 260">
<g filter="url(#filter0_d_291_2754)">
<path opacity="0.1" d="M281.604 410C316.954 410 345.611 406.974 345.611 403.241C345.611 399.509 316.954 396.482 281.604 396.482C246.254 396.482 217.597 399.509 217.597 403.241C217.597 406.974 246.254 410 281.604 410Z" fill="black"/>
<path d="M281.604 404.469C351.963 404.469 409 347.504 409 277.235C409 206.965 351.963 150 281.604 150C211.245 150 154.208 206.965 154.208 277.235C154.208 347.504 211.245 404.469 281.604 404.469Z" fill="#F8F8F8"/>
<path opacity="0.1" d="M387.462 277.23C387.462 335.62 340.063 382.954 281.604 382.954C278.249 382.954 274.926 382.802 271.66 382.494C219.026 377.585 177.578 334.203 175.814 280.795C175.772 279.607 175.751 278.418 175.751 277.23C175.751 274.561 175.851 271.912 176.05 269.284C180.117 214.611 225.825 171.532 281.609 171.532C329.762 171.532 370.399 203.639 383.238 247.58C383.463 248.37 383.689 249.148 383.903 249.959C384.688 252.921 385.351 255.934 385.892 258.997C386.938 265.018 387.463 271.119 387.462 277.23Z" fill="black"/>
<path opacity="0.4" d="M387.462 277.229C387.462 335.619 340.063 382.953 281.604 382.953C224.338 382.953 177.688 337.527 175.809 280.794C187.878 281.139 200.173 280.742 211.578 276.816C223.941 272.567 234.524 264.433 245.908 257.998C276.49 240.774 312.987 236.137 347.924 239.545C359.79 240.7 372.095 243.105 383.233 247.527C386.046 257.169 387.469 267.161 387.462 277.203V277.229Z" fill="#1A5A96"/>
<path opacity="0.4" d="M387.462 277.229C387.462 335.619 340.063 382.953 281.604 382.953C278.249 382.953 274.925 382.801 271.659 382.493C254.494 374.026 239.949 361.068 229.573 345C219.197 328.931 213.377 310.353 212.735 291.244C224.805 291.589 237.099 291.191 248.504 287.266C260.872 283.016 271.45 274.882 282.834 268.447C313.139 251.374 349.249 246.675 383.898 249.906C384.683 252.868 385.346 255.88 385.887 258.944C386.937 264.982 387.464 271.1 387.462 277.229Z" fill="#1A5A96"/>
<path d="M387.462 277.229C387.462 335.619 340.063 382.953 281.604 382.953C223.145 382.953 175.746 335.619 175.746 277.229C175.746 274.56 175.846 271.911 176.044 269.284C184.392 270.302 192.54 272.567 200.215 276.001C212.63 281.568 223.674 290.115 236.586 294.407C246.008 297.543 256.025 298.29 265.939 298.588C278.317 298.98 290.957 298.667 302.666 294.637C315.029 290.387 325.607 282.253 336.996 275.844C352.138 267.313 368.745 261.871 385.887 258.965C386.936 264.997 387.463 271.107 387.462 277.229Z" fill="#1A5A96"/>
<path d="M150.367 201.085L150.311 201.047C150.271 201.019 150.216 201.029 150.188 201.069L149.051 202.702C149.023 202.742 149.033 202.798 149.073 202.826L149.129 202.864C149.169 202.892 149.225 202.882 149.253 202.842L150.389 201.209C150.417 201.169 150.407 201.113 150.367 201.085Z" fill="#464353"/>
<g opacity="0.75" clip-path="url(#clip0_291_2754)">
<path d="M336.162 313.67C323.636 303.014 326.153 292.441 331.769 278.747C341.501 255.018 325.345 227.785 301.861 220.741C276.507 213.135 248.452 225.114 239.014 250.413C236.635 256.816 235.614 263.643 236.015 270.461C236.488 278.514 240.032 284.9 242.591 292.35C247.285 306.024 234.921 317.632 224.395 324.403C211.62 332.636 214.482 335.268 222.095 335.814C228.476 336.272 234.235 334.574 239.909 331.713C242.42 330.446 251.014 326.552 252.227 323.919C248.901 331.168 242.138 343.738 246.369 351.752C251.582 361.629 264.687 343.092 267.306 339.264C269.651 335.837 279.033 317.107 284.673 326.472C289.822 335.021 287.02 347.296 294.427 354.992C303.395 364.315 308.39 350 308.46 342.937C308.505 338.464 306.795 316.808 316.621 326.597C322.468 332.425 331.061 346.001 340.794 344.867C351.366 343.636 334.755 326.339 333.08 323.415C334.552 324.581 347.727 332.718 347.769 326.01C347.799 320.888 339.557 316.56 336.162 313.67Z" fill="#FCBA19"/>
</g>
</g>
</svg>
